<?xml version="1.0" encoding="UTF-8"?>
<svg width="1200" height="630" viewBox="0 0 1200 630" xmlns="http://www.w3.org/2000/svg">
  <!-- Définitions des filtres et dégradés -->
  <defs>
    <!-- Filtre de lueur pour la planète -->
    <filter id="planetGlow" x="-50%" y="-50%" width="200%" height="200%">
      <feGaussianBlur stdDeviation="15" result="blur"/>
      <feFlood flood-color="#ff3000" result="glowColor"/>
      <feComposite in="glowColor" in2="blur" operator="in" result="softGlow"/>
      <feComposite in="softGlow" in2="SourceGraphic" operator="over"/>
    </filter>
    
    <!-- Dégradé pour l'arrière-plan spatial -->
    <linearGradient id="bgGradient" x1="0%" y1="0%" x2="100%" y2="100%">
      <stop offset="0%" stop-color="#06071A" />
      <stop offset="50%" stop-color="#0F1642" />
      <stop offset="100%" stop-color="#06071A" />
    </linearGradient>
    
    <!-- Dégradé de la planète -->
    <radialGradient id="redPlanetGradient" cx="30%" cy="30%" r="70%" fx="20%" fy="20%">
      <stop offset="0%" stop-color="#ff8a8a" />
      <stop offset="40%" stop-color="#ff5757" />
      <stop offset="80%" stop-color="#b30000" />
      <stop offset="100%" stop-color="#800000" />
    </radialGradient>
    
    <!-- Texture des cratères -->
    <radialGradient id="craterGradient" cx="50%" cy="50%" r="50%">
      <stop offset="0%" stop-color="#b30000" />
      <stop offset="60%" stop-color="#800000" />
      <stop offset="100%" stop-color="transparent" />
    </radialGradient>
    
    <!-- Lueur pour les étoiles brillantes -->
    <filter id="starGlow" x="-100%" y="-100%" width="300%" height="300%">
      <feGaussianBlur stdDeviation="1" result="blur"/>
      <feFlood flood-color="#ffffff" result="glowColor"/>
      <feComposite in="glowColor" in2="blur" operator="in" result="softGlow"/>
      <feComposite in="softGlow" in2="SourceGraphic" operator="over"/>
    </filter>
  </defs>
  
  <!-- Arrière-plan spatial -->
  <rect width="1200" height="630" fill="url(#bgGradient)"/>
  
  <!-- Nébuleuse lointaine -->
  <ellipse cx="900" cy="200" rx="400" ry="280" fill="#3a0066" opacity="0.1"/>
  <ellipse cx="200" cy="500" rx="350" ry="250" fill="#003366" opacity="0.1"/>
  
  <!-- Étoiles en arrière-plan (petites) -->
  <g opacity="0.8">
    <!-- Première rangée d'étoiles -->
    <circle cx="120" cy="120" r="1.2" fill="white"/>
    <circle cx="260" cy="85" r="1" fill="white"/>
    <circle cx="350" cy="150" r="0.8" fill="white"/>
    <circle cx="470" cy="100" r="1.4" fill="white"/>
    <circle cx="580" cy="65" r="1" fill="white"/>
    <circle cx="650" cy="130" r="0.9" fill="white"/>
    <circle cx="780" cy="95" r="1.2" fill="white"/>
    <circle cx="880" cy="160" r="0.7" fill="white"/>
    <circle cx="980" cy="110" r="1.3" fill="white"/>
    <circle cx="1050" cy="75" r="1" fill="white"/>
    <circle cx="1120" cy="140" r="0.8" fill="white"/>
    
    <!-- Deuxième rangée -->
    <circle cx="180" cy="210" r="1" fill="white"/>
    <circle cx="280" cy="270" r="0.8" fill="white"/>
    <circle cx="390" cy="230" r="1.2" fill="white"/>
    <circle cx="500" cy="290" r="0.9" fill="white"/>
    <circle cx="610" cy="250" r="1.1" fill="white"/>
    <circle cx="720" cy="210" r="0.7" fill="white"/>
    <circle cx="830" cy="270" r="1.3" fill="white"/>
    <circle cx="940" cy="230" r="0.8" fill="white"/>
    <circle cx="1050" cy="290" r="1" fill="white"/>
    <circle cx="1140" cy="250" r="0.9" fill="white"/>
    
    <!-- Troisième rangée -->
    <circle cx="150" cy="350" r="0.8" fill="white"/>
    <circle cx="250" cy="390" r="1.2" fill="white"/>
    <circle cx="360" cy="370" r="0.9" fill="white"/>
    <circle cx="470" cy="410" r="1.1" fill="white"/>
    <circle cx="580" cy="380" r="0.7" fill="white"/>
    <circle cx="690" cy="420" r="1.3" fill="white"/>
    <circle cx="800" cy="390" r="0.8" fill="white"/>
    <circle cx="910" cy="430" r="1" fill="white"/>
    <circle cx="1020" cy="400" r="0.9" fill="white"/>
    <circle cx="1130" cy="370" r="1.2" fill="white"/>
    
    <!-- Quatrième rangée -->
    <circle cx="120" cy="470" r="1.2" fill="white"/>
    <circle cx="230" cy="510" r="0.9" fill="white"/>
    <circle cx="340" cy="480" r="1.1" fill="white"/>
    <circle cx="450" cy="520" r="0.7" fill="white"/>
    <circle cx="560" cy="490" r="1.3" fill="white"/>
    <circle cx="670" cy="530" r="0.8" fill="white"/>
    <circle cx="780" cy="500" r="1" fill="white"/>
    <circle cx="890" cy="540" r="0.9" fill="white"/>
    <circle cx="1000" cy="510" r="1.2" fill="white"/>
    <circle cx="1110" cy="480" r="0.9" fill="white"/>
  </g>
  
  <!-- Étoiles brillantes avec filtre de lueur -->
  <g filter="url(#starGlow)">
    <circle cx="200" cy="120" r="2" fill="white"/>
    <circle cx="550" cy="200" r="2.2" fill="white"/>
    <circle cx="900" cy="150" r="2.5" fill="white"/>
    <circle cx="1100" cy="300" r="2.3" fill="white"/>
    <circle cx="300" cy="450" r="2.4" fill="white"/>
    <circle cx="700" cy="500" r="2.2" fill="white"/>
    <circle cx="1000" cy="420" r="2.1" fill="white"/>
  </g>
  
  <!-- Planète principale avec effet de lueur -->
  <g filter="url(#planetGlow)" transform="translate(600, 315)">
    <circle cx="0" cy="0" r="180" fill="url(#redPlanetGradient)"/>
    
    <!-- Cratères -->
    <g opacity="0.6">
      <circle cx="-70" cy="-80" r="30" fill="url(#craterGradient)"/>
      <circle cx="50" cy="-65" r="25" fill="url(#craterGradient)"/>
      <circle cx="80" cy="50" r="35" fill="url(#craterGradient)"/>
      <circle cx="-60" cy="40" r="20" fill="url(#craterGradient)"/>
      <circle cx="0" cy="-20" r="28" fill="url(#craterGradient)"/>
      <circle cx="95" cy="10" r="18" fill="url(#craterGradient)"/>
      <circle cx="-30" cy="90" r="32" fill="url(#craterGradient)"/>
    </g>
    
    <!-- Point lumineux -->
    <circle cx="-90" cy="-90" r="70" fill="white" opacity="0.25"/>
    
    <!-- Ombre de profondeur -->
    <circle cx="80" cy="80" r="150" fill="black" opacity="0.12"/>
  </g>
  
  <!-- Petite lune -->
  <g transform="translate(950, 180)">
    <circle cx="0" cy="0" r="30" fill="#e0e0e0"/>
    <circle cx="-10" cy="-5" r="8" fill="#c0c0c0" opacity="0.6"/>
    <circle cx="8" cy="12" r="6" fill="#c0c0c0" opacity="0.6"/>
    <circle cx="-5" cy="15" r="5" fill="#c0c0c0" opacity="0.6"/>
    <!-- Ombre -->
    <circle cx="10" cy="10" r="25" fill="black" opacity="0.15"/>
  </g>
  
  <!-- Astéroïdes lointains -->
  <g opacity="0.7">
    <ellipse cx="250" cy="300" rx="4" ry="3" fill="#a68a64" transform="rotate(30 250 300)"/>
    <ellipse cx="270" cy="290" rx="3" ry="2" fill="#a68a64" transform="rotate(45 270 290)"/>
    <ellipse cx="260" cy="320" rx="3.5" ry="2.5" fill="#a68a64" transform="rotate(15 260 320)"/>
    <ellipse cx="280" cy="310" rx="2.5" ry="2" fill="#a68a64" transform="rotate(60 280 310)"/>
    <ellipse cx="290" cy="330" rx="3" ry="2.5" fill="#a68a64" transform="rotate(75 290 330)"/>
  </g>
  
  <!-- Titre SolTrek -->
  <g>
    <text x="600" y="560" font-family="Arial, sans-serif" font-size="60" font-weight="bold" text-anchor="middle" fill="white">
      SOLTREK
    </text>
    <text x="600" y="600" font-family="Arial, sans-serif" font-size="24" text-anchor="middle" fill="#cccccc">
      EXPLOREZ LE SYSTÈME SOLAIRE EN 3D
    </text>
  </g>
</svg> 